<?xml version="1.0" standalone="no"?>
<!DOCTYPE svg PUBLIC "-//W3C//DTD SVG 20010904//EN"
 "http://www.w3.org/TR/2001/REC-SVG-20010904/DTD/svg10.dtd">
<svg version="1.0" xmlns="http://www.w3.org/2000/svg"
 width="794.000000pt" height="1280.000000pt" viewBox="0 0 794.000000 1280.000000"
 preserveAspectRatio="xMidYMid meet">
<metadata>
Created by potrace 1.15, written by Peter Selinger 2001-2017
</metadata>
<g transform="translate(0.000000,1280.000000) scale(0.100000,-0.100000)"
fill="#000000" stroke="none">
<path d="M1365 12769 c78 -63 220 -216 254 -272 105 -178 125 -346 65 -567
-28 -106 -62 -190 -194 -480 -173 -380 -226 -546 -250 -770 -17 -161 5 -345
60 -504 25 -74 20 -79 -81 -73 -56 4 -89 12 -129 32 -73 37 -145 107 -177 174
-25 50 -28 67 -28 161 0 98 2 110 32 173 18 38 42 81 53 97 11 15 20 31 20 34
0 4 -37 4 -82 0 -207 -15 -348 -85 -444 -220 -66 -92 -95 -179 -101 -299 -9
-167 27 -275 131 -397 78 -91 121 -167 141 -249 22 -89 16 -162 -26 -324 -46
-174 -52 -213 -45 -282 6 -71 31 -126 82 -182 28 -32 31 -40 18 -45 -64 -24
-119 14 -168 117 -18 40 -56 120 -84 178 -83 175 -156 237 -275 230 -15 -1
-13 -7 13 -39 71 -89 67 -208 -20 -492 -18 -58 -47 -161 -65 -230 -129 -483
-63 -830 221 -1165 84 -99 176 -169 299 -230 173 -85 306 -124 585 -175 286
-52 318 -70 217 -121 -23 -12 -43 -23 -45 -24 -10 -9 57 -116 102 -163 109
-116 266 -188 571 -262 80 -19 155 -51 165 -71 22 -41 -14 -81 -225 -250 -157
-126 -345 -306 -432 -414 -149 -185 -265 -393 -338 -605 -20 -58 -40 -109 -45
-114 -4 -4 -29 23 -55 63 -78 119 -147 160 -247 147 -81 -11 -83 -14 -39 -52
23 -20 47 -53 57 -80 22 -58 12 -101 -61 -263 -73 -160 -88 -223 -83 -341 6
-113 27 -176 97 -282 l48 -74 -18 -84 c-25 -116 -47 -243 -56 -315 -8 -60 -8
-60 -43 -63 -43 -3 -97 28 -111 65 -12 32 1 76 34 111 l22 25 -31 -16 c-68
-35 -114 -114 -114 -197 0 -99 64 -241 145 -322 l47 -47 -1 -188 c-2 -263 26
-463 110 -776 112 -418 380 -821 850 -1283 329 -322 641 -527 1060 -694 435
-175 886 -263 1414 -276 844 -22 1661 184 2225 561 332 222 666 565 917 940
548 822 753 1833 562 2770 -31 148 -65 274 -116 425 -184 542 -459 907 -1148
1522 -327 293 -419 392 -481 521 -38 80 -51 159 -36 220 l11 42 -19 -25 c-32
-41 -69 -146 -81 -223 -20 -137 15 -316 96 -497 25 -58 49 -110 52 -117 10
-25 -56 18 -90 58 -19 21 -69 103 -112 182 -160 292 -281 440 -411 502 -51 25
-71 29 -149 29 -54 -1 -105 -7 -128 -15 l-38 -15 47 -34 c52 -39 104 -104 104
-130 0 -50 -97 -66 -208 -34 -176 50 -289 148 -372 319 -72 148 -94 248 -94
420 0 167 14 240 90 479 85 265 98 345 98 576 0 207 -9 266 -59 416 -125 373
-439 661 -858 788 -157 48 -266 66 -441 73 l-149 6 63 -74 c82 -98 152 -242
192 -395 28 -111 31 -132 32 -304 1 -164 -2 -194 -22 -263 -55 -192 -137 -279
-261 -279 -107 0 -238 80 -257 159 -11 42 11 126 62 237 81 179 96 231 97 331
1 80 -2 96 -27 144 -37 71 -103 140 -197 206 -146 104 -193 179 -194 310 0
136 49 249 245 560 141 224 220 376 251 486 21 77 23 103 23 309 1 195 -2 239
-22 332 -66 314 -185 543 -391 748 -330 329 -821 505 -1471 526 l-175 5 40
-32z"/>
</g>
</svg>
